<svg class="diagram-root" style="background: #f5f6f6" xmlns="http://www.w3.org/2000/svg" xmlns:xlink="http://www.w3.org/1999/xlink"><style>.diagram-root { font-family: "Helvetica Neue", sans-serif; font-size: 12px; } .t { overflow: visible; } .t-bg { y: 40; fill: #fff;   } .th { fill: #005aa0;   } .tht { fill: #fff; font-size: 14px;  } .tf { fill: #323c46; overflow: visible; } .tf.pk { fill: #005aa0; font-weight: bold; } .tf.fk { font-weight: bold; } .ty { fill: #adb1b5; font-weight: normal; text-anchor: end; } .r { fill: transparent; stroke: #c3c3c3; stroke-width: 1; } .l { stroke: 1; } .i { fill: #c2c7ce; stroke: #c2c7ce; } .i.ix { fill: #afb3b6; stroke: #000; } .fa { fill: transparent; overflow: visible; } .fa .bg.hover { fill: #f7f7f7; } .c { cy: 12; r: 4; stroke: #d2d2dc; fill: #d2d2dc; } .hr { fill: transparent; stroke: #323c46; stroke-opacity: 0.035; stroke-width: 13; } .dc { stroke: #fa5a3c; fill: #fa5a3c; } .x { stroke: white; stroke-width: 1; } .hl .th { fill: #1b9bff; } .hl .tht {  } .fhl .bg { fill: #e7f4ff; } .fhls .bg {  } .r.hl { stroke: #1b9bff; } .dim { opacity: 0.25; }</style><g class="drawing-wrapper" transform="translate(-34, -86) scale(1,1)"><g class="rs"><path d="M 228.05 198 m -1, 0 a 1,1 0 1,0 2,0 a 1,1 0 1,0 -2,0 M 228.05 198 m -0.5, 0 a 0.5,0.5 0 1,0 1,0 a 0.5,0.5 0 1,0 -1,0  M228.05 198 L228.05 198 240.05 198 M 228.05 204 m -1, 0 a 1,1 0 1,0 2,0 a 1,1 0 1,0 -2,0 M 228.05 204 m -0.5, 0 a 0.5,0.5 0 1,0 1,0 a 0.5,0.5 0 1,0 -1,0  M228.05 204 L228.05 204 235.05 198 228.05 192 M 228.05 192 m -1, 0 a 1,1 0 1,0 2,0 a 1,1 0 1,0 -2,0 M 228.05 192 m -0.5, 0 a 0.5,0.5 0 1,0 1,0 a 0.5,0.5 0 1,0 -1,0  M240.05 198 Q 259.53 198, 279.02 195 T 318 192 M 330 192 m -1, 0 a 1,1 0 1,0 2,0 a 1,1 0 1,0 -2,0 M 330 192 m -0.5, 0 a 0.5,0.5 0 1,0 1,0 a 0.5,0.5 0 1,0 -1,0  M330 192 L330 192 318 192 M324 198 L324 198 324 186" id="h2485312272" class="r"></path><path d="M 556.75 217 m -1, 0 a 1,1 0 1,0 2,0 a 1,1 0 1,0 -2,0 M 556.75 217 m -0.5, 0 a 0.5,0.5 0 1,0 1,0 a 0.5,0.5 0 1,0 -1,0  M556.75 217 L556.75 217 568.75 217 M 556.75 223 m -1, 0 a 1,1 0 1,0 2,0 a 1,1 0 1,0 -2,0 M 556.75 223 m -0.5, 0 a 0.5,0.5 0 1,0 1,0 a 0.5,0.5 0 1,0 -1,0  M556.75 223 L556.75 223 563.75 217 556.75 211 M 556.75 211 m -1, 0 a 1,1 0 1,0 2,0 a 1,1 0 1,0 -2,0 M 556.75 211 m -0.5, 0 a 0.5,0.5 0 1,0 1,0 a 0.5,0.5 0 1,0 -1,0  M568.75 217 Q 603.32 217, 637.88 213.5 T 707 210 M 719 210 m -1, 0 a 1,1 0 1,0 2,0 a 1,1 0 1,0 -2,0 M 719 210 m -0.5, 0 a 0.5,0.5 0 1,0 1,0 a 0.5,0.5 0 1,0 -1,0  M719 210 L719 210 707 210 M713 216 L713 216 713 204" id="h1362555292" class="r"></path><path d="M 556.75 242 m -1, 0 a 1,1 0 1,0 2,0 a 1,1 0 1,0 -2,0 M 556.75 242 m -0.5, 0 a 0.5,0.5 0 1,0 1,0 a 0.5,0.5 0 1,0 -1,0  M556.75 242 L556.75 242 568.75 242 M 556.75 248 m -1, 0 a 1,1 0 1,0 2,0 a 1,1 0 1,0 -2,0 M 556.75 248 m -0.5, 0 a 0.5,0.5 0 1,0 1,0 a 0.5,0.5 0 1,0 -1,0  M556.75 248 L556.75 248 563.75 242 556.75 236 M 556.75 236 m -1, 0 a 1,1 0 1,0 2,0 a 1,1 0 1,0 -2,0 M 556.75 236 m -0.5, 0 a 0.5,0.5 0 1,0 1,0 a 0.5,0.5 0 1,0 -1,0  M568.75 242 C 618.75 242, 632.37 444, 546.05 444 M 534.05 444 m -1, 0 a 1,1 0 1,0 2,0 a 1,1 0 1,0 -2,0 M 534.05 444 m -0.5, 0 a 0.5,0.5 0 1,0 1,0 a 0.5,0.5 0 1,0 -1,0  M534.05 444 L534.05 444 546.05 444 M540.05 450 L540.05 450 540.05 438" id="h2214960698" class="r"></path><path d="M 719 235 m -1, 0 a 1,1 0 1,0 2,0 a 1,1 0 1,0 -2,0 M 719 235 m -0.5, 0 a 0.5,0.5 0 1,0 1,0 a 0.5,0.5 0 1,0 -1,0  M719 235 L719 235 707 235 M 719 241 m -1, 0 a 1,1 0 1,0 2,0 a 1,1 0 1,0 -2,0 M 719 241 m -0.5, 0 a 0.5,0.5 0 1,0 1,0 a 0.5,0.5 0 1,0 -1,0  M719 241 L719 241 712 235 719 229 M 719 229 m -1, 0 a 1,1 0 1,0 2,0 a 1,1 0 1,0 -2,0 M 719 229 m -0.5, 0 a 0.5,0.5 0 1,0 1,0 a 0.5,0.5 0 1,0 -1,0  M707 235 C 645.8 235, 650 425, 700 425 M 712 425 m -1, 0 a 1,1 0 1,0 2,0 a 1,1 0 1,0 -2,0 M 712 425 m -0.5, 0 a 0.5,0.5 0 1,0 1,0 a 0.5,0.5 0 1,0 -1,0  M712 425 L712 425 700 425 M706 431 L706 431 706 419" id="h2791560508" class="r"></path></g><g class="hrs"></g><g class="ts"><svg width="172.05" height="250" x="56" y="116" id="h163436055" class="t"><rect height="40" width="172.05" class="th"></rect><text x="13" y="25" class="tht">Klienci</text><rect height="210" width="172.05" class="t-bg"></rect><text x="13" y="61" class="tf pk">IDKlienta<tspan x="159.05" class="ty">int</tspan></text><path d="M7,14A2,2 0 0,1 5,12A2,2 0 0,1 7,10A2,2 0 0,1 9,12A2,2 0 0,1 7,14M12.65,10C11.83,7.67 9.61,6 7, 6A6, 6 0 0, 0 1, 12A6, 6 0 0, 0 7, 18C9.61, 18 11.83, 16.33 12.65, 14H17V18H21V14H23V10H12.65Z" class="i pk" transform="translate(126.37617187500001, 48) scale(0.65)"></path><text x="13" y="86" class="tf fk">IDWypozyczenia</text><text x="13" y="111" class="tf">Imie<tspan x="159.05" class="ty">navarchar(30)</tspan></text><text x="13" y="136" class="tf">Nazwisko<tspan x="159.05" class="ty">navarchar(30)</tspan></text><text x="13" y="161" class="tf">Email<tspan x="159.05" class="ty">navarchar(30)</tspan></text><text x="13" y="186" class="tf">Login<tspan x="159.05" class="ty">navarchar(30)</tspan></text><text x="13" y="211" class="tf">Hasło<tspan x="159.05" class="ty">navarchar(10)</tspan></text><text x="13" y="236" class="tf">Nr_telefonu<tspan x="159.05" class="ty">int</tspan></text></svg><svg width="226.75" height="200" x="330" y="135" id="h207178873" class="t"><rect height="40" width="226.75" class="th"></rect><text x="13" y="25" class="tht">Wypozyczalnia</text><rect height="160" width="226.75" class="t-bg"></rect><text x="13" y="61" class="tf pk">IDWypozyczenia<tspan x="213.75" class="ty">int</tspan></text><path d="M7,14A2,2 0 0,1 5,12A2,2 0 0,1 7,10A2,2 0 0,1 9,12A2,2 0 0,1 7,14M12.65,10C11.83,7.67 9.61,6 7, 6A6, 6 0 0, 0 1, 12A6, 6 0 0, 0 7, 18C9.61, 18 11.83, 16.33 12.65, 14H17V18H21V14H23V10H12.65Z" class="i pk" transform="translate(181.076171875, 48) scale(0.65)"></path><text x="13" y="86" class="tf fk">IDListy<tspan x="213.75" class="ty">int</tspan></text><text x="13" y="111" class="tf fk">IDPracownika<tspan x="213.75" class="ty">int</tspan></text><text x="13" y="136" class="tf">Data_wypozyczenia<tspan x="213.75" class="ty">smalldatetime</tspan></text><text x="13" y="161" class="tf">Data_zwrotu<tspan x="213.75" class="ty">smalldatetime</tspan></text><text x="13" y="186" class="tf">Cena<tspan x="213.75" class="ty">navarchar(10)</tspan></text></svg><svg width="172.05" height="175" x="362" y="387" id="h3999288498" class="t"><rect height="40" width="172.05" class="th"></rect><text x="13" y="25" class="tht">Pracownicy</text><rect height="135" width="172.05" class="t-bg"></rect><text x="13" y="61" class="tf pk">IDPracownika<tspan x="159.05" class="ty">int</tspan></text><path d="M7,14A2,2 0 0,1 5,12A2,2 0 0,1 7,10A2,2 0 0,1 9,12A2,2 0 0,1 7,14M12.65,10C11.83,7.67 9.61,6 7, 6A6, 6 0 0, 0 1, 12A6, 6 0 0, 0 7, 18C9.61, 18 11.83, 16.33 12.65, 14H17V18H21V14H23V10H12.65Z" class="i pk" transform="translate(126.37617187500001, 48) scale(0.65)"></path><text x="13" y="86" class="tf">Imie<tspan x="159.05" class="ty">navarchar(30)</tspan></text><text x="13" y="111" class="tf">Nazwisko<tspan x="159.05" class="ty">navarchar(30)</tspan></text><text x="13" y="136" class="tf">Nr_telefonu<tspan x="159.05" class="ty">int</tspan></text><text x="13" y="161" class="tf">Pensja<tspan x="159.05" class="ty">int</tspan></text></svg><svg width="158.05" height="150" x="712" y="368" id="h2485651781" class="t"><rect height="40" width="158.05" class="th"></rect><text x="13" y="25" class="tht">Sprzet_sportowy</text><rect height="110" width="158.05" class="t-bg"></rect><text x="13" y="61" class="tf pk">IDSprzetu<tspan x="145.05" class="ty">int</tspan></text><path d="M7,14A2,2 0 0,1 5,12A2,2 0 0,1 7,10A2,2 0 0,1 9,12A2,2 0 0,1 7,14M12.65,10C11.83,7.67 9.61,6 7, 6A6, 6 0 0, 0 1, 12A6, 6 0 0, 0 7, 18C9.61, 18 11.83, 16.33 12.65, 14H17V18H21V14H23V10H12.65Z" class="i pk" transform="translate(112.37617187500001, 48) scale(0.65)"></path><text x="13" y="86" class="tf">Rodzaj<tspan x="145.05" class="ty">navarchar(30)</tspan></text><text x="13" y="111" class="tf">Nazwa<tspan x="145.05" class="ty">navarchar(30)</tspan></text><text x="13" y="136" class="tf">Firma<tspan x="145.05" class="ty">navarchar(30)</tspan></text></svg><svg width="139.61" height="100" x="719" y="153" id="h3376799252" class="t"><rect height="40" width="139.61" class="th"></rect><text x="13" y="25" class="tht">Lista_wypozyczen</text><rect height="60" width="139.61" class="t-bg"></rect><text x="13" y="61" class="tf pk">IDListy<tspan x="126.61000000000001" class="ty">int</tspan></text><path d="M7,14A2,2 0 0,1 5,12A2,2 0 0,1 7,10A2,2 0 0,1 9,12A2,2 0 0,1 7,14M12.65,10C11.83,7.67 9.61,6 7, 6A6, 6 0 0, 0 1, 12A6, 6 0 0, 0 7, 18C9.61, 18 11.83, 16.33 12.65, 14H17V18H21V14H23V10H12.65Z" class="i pk" transform="translate(93.93617187500001, 48) scale(0.65)"></path><text x="13" y="86" class="tf fk">IDSprzetu<tspan x="126.61000000000001" class="ty">int</tspan></text></svg></g></g><text class="qdbd-link" x="10" y="20">www.quickdatabasediagrams.com</text></svg>